<svg width="13" height="13" viewBox="0 0 13 13" fill="none" xmlns="http://www.w3.org/2000/svg">
<path d="M1 6.5H2.52778M2.52778 6.5C2.52778 8.69383 4.3062 10.4722 6.5 10.4722M2.52778 6.5C2.52778 4.3062 4.3062 2.52778 6.5 2.52778M6.5 10.4722C8.69377 10.4722 10.4722 8.69383 10.4722 6.5M6.5 10.4722V12M6.5 2.52778C8.69383 2.52778 10.4722 4.3062 10.4722 6.5M6.5 2.52778V1M10.4722 6.5H12M8.63889 6.5C8.63889 7.68128 7.68128 8.63889 6.5 8.63889C5.31872 8.63889 4.36111 7.68128 4.36111 6.5C4.36111 5.31872 5.31872 4.36111 6.5 4.36111C7.68128 4.36111 8.63889 5.31872 8.63889 6.5Z" stroke="url(#paint0_linear_13_186)" stroke-linecap="round"/>
<defs>
<linearGradient id="paint0_linear_13_186" x1="1.49653" y1="10.2" x2="12.7677" y2="9.03859" gradientUnits="userSpaceOnUse">
<stop stop-color="#A36429"/>
<stop offset="1" stop-color="#E6BC86"/>
</linearGradient>
</defs>
</svg>
